<svg xmlns="http://www.w3.org/2000/svg" width="80px" viewBox="0 0 430 350"><style type="text/css">  
	.st0{fill:#432918;}
	.st1{fill:#FFFFFF;}
	.st2{fill:#F8A916;}
	.st3{fill:#FFFFFF;stroke:#F8A916;stroke-width:1.5;stroke-miterlimit:10;}
</style><path class="st0" d="M403.9 249c-1-1.3-3.2-3.8-6.5-6.1V235c0-1.4-0.3-2.8-0.8-4.1l5.7-13.7c3.5-1.9 5.9-5.6 5.9-9.9V198c0-6.2-5-11.3-11.3-11.3h-15.7c-0.7 0-1.5 0.1-2.1 0.2 -0.6-0.1-1.2-0.1-1.8-0.1h-10.3c-0.2-6-5.2-10.8-11.2-10.8H342c-1.1 0-2.2 0.2-3.2 0.5 -1-0.3-2.1-0.5-3.2-0.5h-13.8c-6.1 0-11.1 4.9-11.2 10.9h-4.9c-0.9 0-1.7 0.1-2.5 0.3 -1.9-0.6-4.1-0.9-6.6-0.9 -2 0-7.2 0.3-12.8 3.1 -2-1.7-4.5-2.7-7.3-2.7h-8.2c-0.6 0-1.1 0-1.6 0.1 -1.9-0.5-4.1-0.9-6.6-0.9 -4.2 0-8.3 1-12.1 2.9v-1.5c0-6.2-5-11.3-11.3-11.3h-10.2c-6.2 0-11.3 5-11.3 11.3v1.5c-1.4-0.7-2.9-1.2-4.4-1.6 -2.9-0.7-5.5-0.8-6.3-0.8 -2.7 0-5 0.3-7 0.9 -0.8-0.2-1.7-0.3-2.6-0.3h-13.8c-2.7 0-5.2 1-7.2 2.6 -2.9-1.6-6.3-2.5-9.8-2.7 -0.2-6-5.2-10.9-11.2-10.9H139c-6.1 0-11 4.8-11.2 10.8 -0.3 0-0.5 0-0.8 0.1 -1.9-0.5-4.1-0.9-6.6-0.9 -6.9 0-13.6 2.8-18.8 7.5 -2.8-2.5-6.9-5.2-12.5-6.5 0 0-0.1 0-0.1 0 -2.9-0.7-5.3-0.8-6.9-0.8 -1.4 0-2.7 0.1-3.9 0.3 -0.5-5.7-5.3-10.2-11.2-10.2H29.4c-6.2 0-11.3 5-11.3 11.3v15.6c0 6.2 5 11.3 11.3 11.3h2.1v0.1c-2.7 2.1-4.5 5.3-4.5 9v9.3c0 0.8 0.1 1.6 0.3 2.4 -1.2 1-2.3 2.1-3.3 3.3 -7.4 8.6-8.5 18.1-8.5 23 0 10.5 4.5 20.3 12.4 27 5.9 5 13.5 7.7 21.5 7.7 10 0 17-4.1 20.2-6.5 0 0 0.1-0.1 0.1-0.1 0.6-0.4 1.1-0.9 1.6-1.3 0.5 0.5 1 0.9 1.5 1.3 5.2 4.3 11.7 6.7 18.3 6.7 5.6 0 10.2-1.6 13.8-3.5 2 1.7 4.5 2.7 7.3 2.7h17.4c1.3 0 2.6-0.2 3.7-0.6 1.2 0.4 2.4 0.6 3.7 0.6h13.3c1.3 0 2.5-0.2 3.6-0.6 1.1 0.4 2.3 0.6 3.6 0.6h4.7v0.3c0 6.2 5 11.3 11.3 11.3h17.1c6.2 0 11.3-5 11.3-11.3v-0.4c4.6-0.9 8.8-3 12.5-6.1 0.2-0.2 0.4-0.4 0.7-0.6 0.3 0.3 0.6 0.6 1 0.9 5 4.3 10.8 6.4 17.8 6.4 2.6 0 4.8-0.3 6.8-0.9 0.9 0.2 1.9 0.4 2.9 0.4h13.1c1.1 0 2.1-0.2 3.1-0.4 1 0.3 2 0.4 3.1 0.4H277c0.4 0 0.7 0 1-0.1 0.5 0.1 1 0.1 1.5 0.1h17.5c0.5 0 1 0 1.4-0.1 0.2 0 0.5 0 0.7 0h13.8c1.1 0 2.1-0.1 3.1-0.4 2.7 0.8 5.2 0.9 6.8 0.9 5.1 0 9.3-1.4 12.7-3.2 1.9 1.6 4.4 2.5 7.1 2.5h17.3c2.7 0 5.1-0.9 7.1-2.5 4.1 2.2 8.7 3.5 13.5 3.5 0.1 0 0.1 0 0.2 0 10.7 0 17.8-5.8 20.4-8.4 3.5-3.4 4.9-6.6 6.1-9.2 0.4-1 0.7-2 0.9-3 0.4-0.8 0.7-1.7 0.9-2.7 0.5-2.4 0.7-4.6 0.7-6.5C409.8 264.3 409.4 256.1 403.9 249zM49.5 260.9c0.1 0.1 0.1 0.2 0.2 0.3 0 0 0 0.1 0.1 0.1 -0.1 0.2-0.2 0.3-0.3 0.5 0-0.1 0-0.2 0-0.3C49.3 261.3 49.4 261.1 49.5 260.9zM146.7 252.2c-0.2 0.2-0.4 0.4-0.6 0.6C146.3 252.6 146.5 252.4 146.7 252.2zM147.7 251.4c0.2-0.2 0.4-0.3 0.7-0.5C148.1 251.1 147.9 251.2 147.7 251.4zM146.8 252.1c0.2-0.2 0.4-0.4 0.6-0.6C147.2 251.8 147 251.9 146.8 252.1zM155.3 249c0.1 0 0.1 0 0.2 0 -0.4 0-0.7 0-1.1 0C154.7 249.1 155 249 155.3 249zM153.7 249.1c-0.3 0-0.6 0.1-0.9 0.1C153.1 249.2 153.4 249.2 153.7 249.1zM152.1 249.4c-0.3 0.1-0.6 0.2-0.8 0.2C151.5 249.6 151.8 249.5 152.1 249.4zM150.7 249.8c-0.3 0.1-0.5 0.2-0.8 0.3C150.2 250 150.4 249.9 150.7 249.8zM149.4 250.3c-0.3 0.1-0.5 0.3-0.7 0.4C148.9 250.6 149.2 250.5 149.4 250.3z"/><path class="st1" d="M67.1 187.3v15.5h-8.8v-5.6h-4.6v26.1h4.4v9.3h-20v-9.3h4.5v-26.1h-4.6v5.7h-8.8v-15.6H67.1z"/><path class="st1" d="M98.5 222.5c-1.1 2.4-1.9 4-3.8 5.9 -1.7 1.7-6 5.2-12.5 5.2 -3.8-0.1-7.5-1.3-10.5-3.6 -2.3-1.7-7.1-6.4-7.1-14.5 0-5.5 2.3-9.1 3.5-10.8 1.6-2.3 6.1-7.3 14.1-7.3 0.8 0 2.4 0.1 4.3 0.5 5.3 1.3 8.6 4.7 9.9 6.3 3.2 4.1 3.6 9.3 3.6 10.9 0 1.8-0.5 4-0.5 4.3H74.3c0.5 1 0.8 1.7 1.5 2.6 2.2 2.6 5.6 2.8 6.6 2.8 2.5 0 3.9-0.9 5.9-2.3L98.5 222.5zM91.1 212.1c-0.4-1.2-0.7-1.9-1.5-2.8 -0.9-1-3.3-3.3-7.1-3.3 -2.8 0-5.7 1.4-7.3 3.9 -0.3 0.5-0.6 1-1 2.2H91.1z"/><path class="st1" d="M136.9 210.1h-9.4c-0.3-0.5-0.7-0.8-1.1-1.2 -0.7-0.6-2.4-2.2-5.2-2.2 -0.5 0-1.5 0.1-2.8 0.6 -1.7 0.8-5 3-5 7.9 0 0.7 0 1.9 0.7 3.5 1.2 2.8 4 5 7.3 5 2.6-0.1 3.9-1.4 5.6-3.2h11.1c-1 2.8-1.5 4-2.4 5.2 -3.2 4.8-8.7 7.7-14.5 7.7 -2.1 0-6.6-0.4-10.9-3.9 -2.2-1.7-6.9-6.5-6.9-14.4 0-2.1 0.4-7.2 4.2-11.8 3.1-3.7 7.9-6.1 12.7-6.1 4.3 0 6.7 1.9 8.2 2.8V198h8.2V210.1z"/><path class="st1" d="M143.1 223.4v-27H139v-9.1h13.8v15.2c1-1.2 1.3-1.5 1.9-2.1 2.7-2.3 6.6-2.3 7.6-2.3 1.5 0 6.7 0.2 9.8 4.5 2.1 3 2.3 6.2 2.6 9.7v11.2h3.5v9.3h-13.4v-18.9c-0.1-2.6-0.3-4.5-2.5-6 -0.4-0.3-1.7-1-3.3-1 -2.6 0-5.2 1.8-5.9 4.3 -0.2 0.7-0.3 1.2-0.3 2.5v9.7h3.5v9.2H139v-9.2H143.1z"/><path class="st1" d="M185.2 223.3v-16h-4.1v-9.1h13.8v4.2c1.7-2.3 3.6-4.8 9.6-4.8 0.5 0 2.1 0.1 3.5 0.4 3.2 0.8 6 2.9 7.3 5.8 1 2.3 1.2 4.8 1.2 5.5v13.9h3.5v9.2h-13.5v-19.2c-0.1-2.5-0.3-4.4-2.3-5.7 -0.9-0.5-1.9-0.8-3-0.8 -1.7 0-3.3 0.8-4.4 2.1 -1.1 1.3-1.4 2.4-1.7 5.7v8.8h3.4v9.3h-17.4v-9.2H185.2z"/><path class="st1" d="M226.5 223.4v-16h-3.9v-9.3h14v25.2h3.5v9.3h-17.5v-9.3H226.5zM236.7 187.3v8.9h-10.2v-8.9H236.7z"/><path class="st1" d="M276.4 210.1H267c-0.3-0.5-0.7-0.8-1.1-1.2 -0.7-0.6-2.4-2.2-5.2-2.2 -0.5 0-1.5 0.1-2.8 0.6 -1.7 0.8-5 3-5 7.9 0 0.7 0 1.9 0.7 3.5 1.2 2.8 4 5 7.3 5 2.6-0.1 3.9-1.4 5.6-3.2h11.1c-1 2.8-1.5 4-2.4 5.2 -3.2 4.8-8.7 7.7-14.5 7.7 -2.1 0-6.6-0.4-10.9-3.9 -2.2-1.7-6.9-6.5-6.9-14.4 0-2.1 0.4-7.2 4.3-11.8 3.1-3.7 7.9-6.1 12.7-6.1 4.3 0 6.7 1.9 8.2 2.8V198h8.2V210.1z"/><path class="st1" d="M318.8 207.4H315v15.9h3.8v9.3h-13.1v-3.4c-3.3 2.5-5.3 3.9-9.7 3.9 -4.1 0-7.3-1-10.4-3.7 -4-3.5-6.6-8.9-6.6-14.1 0-3.9 1.5-8 4-11.2 4.6-5.7 10.8-6.6 13.5-6.6 3.9 0 6.1 1.5 9.1 3.7v-3h13.1V207.4zM290.7 220c0.6 1 2.9 3.5 6.5 3.5 1-0.1 1.9-0.2 2.8-0.6 3.1-1.2 5.1-4.3 5.1-7.5 0-0.6-0.1-1.9-0.7-3.4 -1.2-2.8-4.1-4.6-7-4.6 -0.5 0-1.5 0.1-2.6 0.4 -4.2 1.4-5.3 5.1-5.5 6.6C289.3 215.3 289.1 217.7 290.7 220z"/><path class="st1" d="M325.7 223.4v-26.9h-3.9v-9.2h13.8v36h3.5v9.2h-17.3v-9.1H325.7z"/><path class="st1" d="M345.9 223.4v-26.9H342v-9.2h13.8v36h3.5v9.2h-17.3v-9.1H345.9z"/><path class="st1" d="M377.4 198.1v9.3h-2.3c0.8 2.5 1.6 5 2.3 7.5 0.6 2.1 1.2 4.2 1.7 6.3 0.6-2.1 1.2-4.1 1.8-6.2 0.8-2.6 1.6-5.1 2.4-7.7h-2.1V198h15.7v9.3h-2.7L382.8 235h3.4v9.1h-17V235h3.2l1.4-3.8c-1.3-3.5-2.6-6.9-3.9-10.2 -1.8-4.6-3.7-9.1-5.5-13.7h-3.2v-9.3H377.4z"/><path class="st2" d="M70.3 255.5H59.4c-0.2-0.3-1-1.7-1.9-2.7 -1-1.2-3.4-3.5-7.8-3.5 -0.8 0-2.3 0.1-4.1 0.8 -4.7 1.9-7.5 6.4-7.5 11.5 0 2.3 0.6 3.9 0.9 4.7 1.7 4.4 5.9 7.6 10.8 7.6 2.4 0 4.1-0.8 6.1-2.3 0.7-0.5 1.3-1.1 1.9-1.8 0.6-0.8 1-1.5 1.4-2.4h12.2c-0.2 1-0.5 1.9-0.7 2.9 -1 3-2.4 4.9-4.6 7.1 -1.2 1.3-1.9 2.1-3.3 3.1 -2 1.5-6.7 4.2-13.5 4.2 -2.6 0-8.8-0.5-14.2-5.1 -5.4-4.6-8.4-11.3-8.4-18.4 0-2.8 0.5-9.6 5.7-15.6 5.9-6.8 13.4-7.5 16.7-7.5 0.8 0 3.5 0.1 6.1 0.8 1.8 0.6 3 1.2 5.9 3.6v-3.7h9.3V255.5z"/><path class="st2" d="M77.8 255c3.3-3.9 8.3-6.1 13.4-6.1 2.1 0 6.8 0.4 11.2 4.1 2.1 1.7 6.4 6.4 6.4 14.1 0 6.1-3 10.3-4.4 11.9 -1.6 1.9-6.2 6.1-13.4 6.1 -5.7 0-9.6-2.8-11.1-4.1 -4.2-3.5-6.6-9-6.4-14.6C73.6 260.6 76.3 256.6 77.8 255zM84.6 272c1.5 2 3.9 3.3 6.3 3.3 4.2 0 8.4-3.9 8.4-8.2 0-4.3-3.8-8.2-8-8.2 -1.1 0-2.3 0.3-3.2 0.8 -3.9 1.7-4.8 5.3-5 6.8C83 267.3 82.9 269.7 84.6 272z"/><path class="st2" d="M124.8 249.8l0.1 4.8c0.2-0.3 1.7-2.4 3.2-3.5 0.9-0.7 2.9-1.9 6.2-1.9 0.7 0 2.6 0.1 4.5 0.8 2.9 1.2 4.1 2.9 5.6 5.5 0.8-1.4 1.2-1.9 1.7-2.6 1.4-1.6 4.4-3.9 9.5-3.8 4.4 0 6.9 1.7 8.2 2.8 0.4 0.3 1.8 1.6 2.5 3.2 0.6 1.4 0.8 2.6 1 5.7v14.2h3.7v9.3h-13.5v-20.1c-0.2-2.4-0.3-4.2-2.4-5.3 -0.8-0.5-1.7-0.6-2.6-0.6 -0.9 0-3 0.3-4.6 2.3 -0.9 1.2-1.2 2.3-1.3 5.2v9.4h3.7v9.3h-13.3V266c0-2.6-0.1-4.8-2.2-6.4 -0.4-0.3-1.5-1-3-1 -1.1 0-2.2 0.3-3 1 -2.3 1.5-2.4 3.7-2.7 6.4v9h3.5v9.3H112v-9.3h4V259h-4v-9.2H124.8z"/><path class="st2" d="M186.8 249.9v4c0.6-0.7 1.2-1.4 1.9-2 1.2-1 3.9-2.6 7.9-2.6 3 0 7.7 0.8 12.3 6.1 1.7 1.9 4.3 5.3 4.3 11.7 0 7.7-3.9 11.7-6.2 13.7 -2.8 2.4-6.4 3.9-10.3 3.9 -4.1 0-6.3-1.4-9.5-3.7v5.5h3.3v9.3h-17.1v-9.2h3.7V259h-3.7v-9.1H186.8zM187.5 269.9c1.2 3.1 4.2 5.3 7.5 5.3 0.5 0 1.9-0.1 3.3-0.8 2.9-1.4 4.6-4.3 4.6-7.5 0-2.6-1.1-4.3-1.6-5.1 -1.4-2-3.9-3.3-6.4-3.3 -1.4 0.1-2.6 0.4-3 0.6 -2.8 1.2-4.7 4-5 7C186.9 266.9 186.9 268.2 187.5 269.9z"/><path class="st2" d="M256.3 259.1h-3.8V275h3.8v9.3h-13.1v-3.4c-3.3 2.5-5.3 3.9-9.7 3.9 -4.1 0-7.3-1-10.4-3.7 -4-3.5-6.6-8.9-6.6-14.1 0-3.9 1.5-8 4-11.2 4.6-5.7 10.8-6.6 13.5-6.6 3.9 0 6.1 1.5 9.1 3.7v-3h13.1V259.1zM228.3 271.6c0.6 1 2.9 3.5 6.5 3.5 1-0.1 1.9-0.2 2.8-0.6 3.1-1.2 5.1-4.3 5.1-7.5 0-0.6-0.1-1.9-0.7-3.4 -1.2-2.8-4.1-4.6-7-4.6 -0.5 0-1.5 0.1-2.6 0.4 -4.3 1.4-5.3 5.1-5.5 6.6C226.8 266.9 226.7 269.4 228.3 271.6z"/><path class="st2" d="M262.5 249.8v-11.2h10.1v11.2h4.5v9.3h-4.5V275h4.4v9.3h-14.6v-25.2h-3.6v-9.3H262.5z"/><path class="st2" d="M283.5 275.1v-16h-3.9v-9.3h14v25.2h3.5v9.3h-17.5v-9.3H283.5zM293.7 239v8.9h-10.2V239H293.7z"/><path class="st2" d="M303.2 275.1v-26.8h-3.9v-9.1h13.8l0.1 14c3.1-2.4 5.3-3.9 9.3-3.9 2.1 0 6.3 0.5 10.4 3.9 2.3 1.9 6.4 6.4 6.4 14.3 0 1.9-0.3 7.2-4 11.6 -1.4 1.7-5.7 5.9-12.4 5.9 -1.3 0-4.9-0.2-7.9-2.6 -0.7-0.5-1.4-1.2-2-1.9v3.9h-13.8v-9.2H303.2zM313.1 269.3c1.2 3.7 4.3 6.1 8.2 6.1 1 0 3.7-0.2 5.7-2.3 0.8-0.8 2.5-2.9 2.5-6.1 0-0.6-0.1-2-0.8-3.5 -1.4-3.2-4.2-5.2-7.7-5.2 -1.4 0-2.6 0.4-3.1 0.6 -2.9 1.1-5 3.9-5.2 7C312.6 267.1 312.7 268.2 313.1 269.3z"/><path class="st2" d="M346.5 275.1v-26.9h-3.9v-9.2h13.8v36h3.5v9.2h-17.3v-9.1H346.5z"/><path class="st2" d="M397.1 274.2c-1.1 2.4-1.9 4-3.8 5.9 -1.7 1.7-6 5.2-12.5 5.2 -3.8-0.1-7.5-1.3-10.5-3.6 -2.3-1.7-7.1-6.4-7.1-14.5 0-5.5 2.3-9.1 3.5-10.8 1.6-2.3 6.1-7.3 14.1-7.3 0.8 0 2.4 0.1 4.3 0.5 5.3 1.3 8.6 4.7 9.9 6.3 3.2 4.1 3.6 9.3 3.6 10.9 0 1.8-0.5 4-0.5 4.3h-25.2c0.5 1 0.8 1.7 1.5 2.6 2.2 2.6 5.6 2.8 6.6 2.8 2.5 0 3.9-0.9 5.9-2.3L397.1 274.2zM389.6 263.8c-0.4-1.2-0.7-1.9-1.5-2.8 -0.9-1-3.3-3.3-7.1-3.3 -2.8 0-5.7 1.4-7.3 3.9 -0.3 0.5-0.6 1-1 2.2H389.6z"/><path class="st3" d="M198.8 71.1c0.7-2.2 1.1-4.4 1.1-6.8 0-11.9-9.7-21.7-21.7-21.7 -11.9 0-21.7 9.7-21.7 21.7 0 2.5 0.4 4.9 1.2 7.2 -3.3 2.5-5.3 6.1-5.3 10.2v48.2c0 3 1.1 5.9 3 8.1v20c0 8.3 6.7 15 15 15h15.9c8.3 0 15-6.7 15-15v-20c1.9-2.3 3-5.1 3-8.1V81.7C204.5 77.4 202.3 73.6 198.8 71.1zM194.1 129.9c0 1.3-1.2 2.3-3 2.9v25.3c0 2.5-2 4.5-4.5 4.5h-15.9c-2.5 0-4.5-2-4.5-4.5v-25.3c-1.8-0.5-3-1.6-3-2.9V81.7c0-1.8 2.4-3.2 5.4-3.2h20.3c3 0 5.4 1.4 5.4 3.2V129.9zM167.1 64.3c0-6.2 5-11.2 11.2-11.2 6.2 0 11.2 5 11.2 11.2 0 6.2-5 11.2-11.2 11.2C172.1 75.5 167.1 70.5 167.1 64.3z"/><path class="st0" d="M401.5 82c-0.4-3.4-1.9-6.5-4.1-8.9 1.1-2.5 1.6-5.3 1.6-8.3 0-11.9-9.7-21.7-21.7-21.7 -11.9 0-21.7 9.7-21.7 21.7 0 2.7 0.5 5.3 1.5 7.8 -2.5 2.5-4.2 5.8-4.6 9.5l-11.1 44.5v1.3c0 7.7 5.6 14.1 12.9 15.5v14.7c0 8.3 6.7 15 15 15h15.9c8.3 0 15-6.7 15-15v-14.7c7.3-1.3 12.9-7.8 12.9-15.5v-1.4L401.5 82zM366.2 64.8c0-6.2 5-11.2 11.2-11.2 6.2 0 11.2 5 11.2 11.2 0 6.2-5 11.2-11.2 11.2C371.2 76 366.2 71 366.2 64.8zM397.5 133.1h-7.6v24.9c0 2.5-2 4.5-4.5 4.5h-15.9c-2.5 0-4.5-2-4.5-4.5v-24.9h-7.6c-2.9 0-5.3-2.4-5.3-5.3l11-44.2c0-2.9 2.4-5.3 5.3-5.3h17.6c2.9 0 5.3 2.4 5.3 5.3l11.7 44.2C402.8 130.8 400.4 133.1 397.5 133.1z"/><path class="st0" d="M331.9 71.1c0.7-2.2 1.1-4.4 1.1-6.8 0-11.9-9.7-21.7-21.7-21.7 -11.9 0-21.7 9.7-21.7 21.7 0 2.5 0.5 4.9 1.2 7.2 -3.3 2.5-5.3 6.1-5.3 10.2v48.2c0 3.1 1.1 5.9 3 8.1v20c0 8.3 6.7 15 15 15h15.9c8.3 0 15-6.7 15-15v-20c1.9-2.3 3-5.1 3-8.1V81.7C337.6 77.4 335.4 73.6 331.9 71.1zM327.2 129.9c0 1.3-1.2 2.3-3 2.9 0 0.1 0 0.1 0 0.2v25.1c0 2.5-2 4.5-4.5 4.5h-15.9c-2.5 0-4.5-2-4.5-4.5V133c0-0.1 0-0.1 0-0.2 -1.8-0.5-3-1.6-3-2.9V81.7c0-1.8 2.4-3.2 5.4-3.2h20.3c3 0 5.4 1.4 5.4 3.2V129.9zM300.2 64.3c0-6.2 5-11.2 11.2-11.2 6.2 0 11.2 5 11.2 11.2 0 6.2-5 11.2-11.2 11.2C305.2 75.5 300.2 70.5 300.2 64.3z"/><path class="st0" d="M264.6 72.9c1.1-2.6 1.8-5.5 1.8-8.6 0-11.9-9.7-21.7-21.7-21.7 -11.9 0-21.7 9.7-21.7 21.7 0 2.9 0.6 5.6 1.6 8.1 -2.6 2.5-4.3 5.9-4.7 9.7l-11.1 44.5v1.3c0 7.7 5.6 14.1 12.9 15.5v14.7c0 8.3 6.7 15 15 15h15.9c8.3 0 15-6.7 15-15v-14.7c7.3-1.3 12.9-7.8 12.9-15.5v-1.4L268.8 82C268.4 78.5 266.9 75.3 264.6 72.9zM233.5 64.3c0-6.2 5-11.2 11.2-11.2 6.2 0 11.2 5 11.2 11.2 0 6.2-5 11.2-11.2 11.2C238.5 75.5 233.5 70.5 233.5 64.3zM264.9 133.1h-7.6v24.9c0 2.5-2 4.5-4.5 4.5h-15.9c-2.5 0-4.5-2-4.5-4.5v-24.9h-7.6c-2.9 0-5.3-2.4-5.3-5.3l11-44.2c0-2.9 2.4-5.3 5.3-5.3h17.6c2.9 0 5.3 2.4 5.3 5.3l11.7 44.2C270.2 130.8 267.8 133.1 264.9 133.1z"/><path class="st0" d="M131.8 72.9c1.1-2.6 1.8-5.5 1.8-8.6 0-11.9-9.7-21.7-21.7-21.7 -11.9 0-21.7 9.7-21.7 21.7 0 2.9 0.6 5.6 1.6 8.1 -2.6 2.5-4.3 5.9-4.7 9.7l-11.1 44.5v1.3c0 7.7 5.6 14.1 12.9 15.5v14.7c0 8.3 6.7 15 15 15h15.9c8.3 0 15-6.7 15-15v-14.7c7.3-1.3 12.9-7.8 12.9-15.5v-1.4L136 82C135.6 78.5 134.1 75.3 131.8 72.9zM100.7 64.3c0-6.2 5-11.2 11.2-11.2 6.2 0 11.2 5 11.2 11.2 0 6.2-5 11.2-11.2 11.2C105.7 75.5 100.7 70.5 100.7 64.3zM132.1 133.1h-7.6v24.9c0 2.5-2 4.5-4.5 4.5H104c-2.5 0-4.5-2-4.5-4.5v-24.9h-7.6c-2.9 0-5.3-2.4-5.3-5.3l11-44.2c0-2.9 2.4-5.3 5.3-5.3h17.6c2.9 0 5.3 2.4 5.3 5.3l11.7 44.2C137.4 130.8 135 133.1 132.1 133.1z"/><path class="st0" d="M67 71.1c0.7-2.2 1.1-4.4 1.1-6.8 0-11.9-9.7-21.7-21.7-21.7 -11.9 0-21.7 9.7-21.7 21.7 0 2.5 0.5 4.9 1.2 7.2 -3.3 2.5-5.3 6.1-5.3 10.2v48.2c0 3 1.1 5.9 3 8.1v20c0 8.3 6.7 15 15 15h15.9c8.3 0 15-6.7 15-15v-20c1.9-2.3 3-5.1 3-8.1V81.7C72.7 77.4 70.5 73.6 67 71.1zM62.3 129.9c0 1.3-1.2 2.3-3 2.9v25.3c0 2.5-2 4.5-4.5 4.5H38.8c-2.5 0-4.5-2-4.5-4.5v-25.3c-1.8-0.5-3-1.6-3-2.9V81.7c0-1.8 2.4-3.2 5.4-3.2h20.3c3 0 5.4 1.4 5.4 3.2V129.9zM35.3 64.3c0-6.2 5-11.2 11.2-11.2 6.2 0 11.2 5 11.2 11.2 0 6.2-5 11.2-11.2 11.2C40.3 75.5 35.3 70.5 35.3 64.3z"/><path class="st2" d="M188.7 78.5h-20.3c-3 0-5.4 1.4-5.4 3.2v48.2c0 1.3 1.2 2.3 3 2.9v25.3c0 2.5 2 4.5 4.5 4.5h15.9c2.5 0 4.5-2 4.5-4.5v-25.3c1.8-0.5 3-1.6 3-2.9V81.7C194.1 79.9 191.6 78.5 188.7 78.5zM185.8 150.3c0 0.3-0.2 0.5-0.4 0.5h-2.5c-0.2 0-0.4-0.2-0.4-0.5v-1.1c0-0.3 0.2-0.5 0.4-0.5h2.5c0.2 0 0.4 0.2 0.4 0.5V150.3zM171.3 150.3v-1.1c0-0.3 0.2-0.5 0.4-0.5h2.5c0.2 0 0.4 0.2 0.4 0.5v1.1c0 0.3-0.2 0.5-0.4 0.5h-2.5C171.5 150.8 171.3 150.6 171.3 150.3zM169.8 155c0-0.8 0.6-1.5 1.3-1.5h3.8c0.7 0 1.3 0.7 1.3 1.5v1.6c0 0.8-0.6 1.5-1.3 1.5h-3.8c-0.7 0-1.3-0.6-1.3-1.5V155zM187.3 156.7c0 0.8-0.6 1.5-1.3 1.5h-3.8c-0.7 0-1.3-0.6-1.3-1.5V155c0-0.8 0.6-1.5 1.3-1.5h3.8c0.7 0 1.3 0.7 1.3 1.5V156.7z"/><path class="st1" d="M186 153.6h-3.8c-0.7 0-1.3 0.7-1.3 1.5v1.6c0 0.8 0.6 1.5 1.3 1.5h3.8c0.7 0 1.3-0.6 1.3-1.5V155C187.3 154.2 186.7 153.6 186 153.6z"/><path class="st1" d="M171.1 158.1h3.8c0.7 0 1.3-0.6 1.3-1.5V155c0-0.8-0.6-1.5-1.3-1.5h-3.8c-0.7 0-1.3 0.7-1.3 1.5v1.6C169.8 157.5 170.4 158.1 171.1 158.1z"/><path class="st1" d="M185.4 148.7h-2.5c-0.2 0-0.4 0.2-0.4 0.5v1.1c0 0.3 0.2 0.5 0.4 0.5h2.5c0.2 0 0.4-0.2 0.4-0.5v-1.1C185.8 148.9 185.6 148.7 185.4 148.7z"/><path class="st1" d="M171.7 150.8h2.5c0.2 0 0.4-0.2 0.4-0.5v-1.1c0-0.3-0.2-0.5-0.4-0.5h-2.5c-0.2 0-0.4 0.2-0.4 0.5v1.1C171.3 150.6 171.5 150.8 171.7 150.8z"/><circle class="st2" cx="178.3" cy="64.3" r="11.2"/><path class="st1" d="M385.8 78.4h-17.6c-2.9 0-5.3 2.4-5.3 5.3l-11 44.2c0 2.9 2.4 5.3 5.3 5.3h7.6v24.9c0 2.5 2 4.5 4.5 4.5h15.9c2.5 0 4.5-2 4.5-4.5v-24.9h7.6c2.9 0 5.3-2.4 5.3-5.3l-11.7-44.2C391.1 80.8 388.7 78.4 385.8 78.4zM384.6 150.3c0 0.3-0.2 0.5-0.4 0.5h-2.5c-0.2 0-0.4-0.2-0.4-0.5v-1.1c0-0.3 0.2-0.5 0.4-0.5h2.5c0.2 0 0.4 0.2 0.4 0.5V150.3zM370.1 150.3v-1.1c0-0.3 0.2-0.5 0.4-0.5h2.5c0.2 0 0.4 0.2 0.4 0.5v1.1c0 0.3-0.2 0.5-0.4 0.5h-2.5C370.3 150.8 370.1 150.6 370.1 150.3zM368.6 155c0-0.8 0.6-1.5 1.3-1.5h3.8c0.7 0 1.3 0.7 1.3 1.5v1.6c0 0.8-0.6 1.5-1.3 1.5h-3.8c-0.7 0-1.3-0.6-1.3-1.5V155zM386.1 156.7c0 0.8-0.6 1.5-1.3 1.5H381c-0.7 0-1.3-0.6-1.3-1.5V155c0-0.8 0.6-1.5 1.3-1.5h3.8c0.7 0 1.3 0.7 1.3 1.5V156.7z"/><path class="st0" d="M384.8 153.6H381c-0.7 0-1.3 0.7-1.3 1.5v1.6c0 0.8 0.6 1.5 1.3 1.5h3.8c0.7 0 1.3-0.6 1.3-1.5V155C386.1 154.2 385.5 153.6 384.8 153.6z"/><path class="st0" d="M369.9 158.1h3.8c0.7 0 1.3-0.6 1.3-1.5V155c0-0.8-0.6-1.5-1.3-1.5h-3.8c-0.7 0-1.3 0.7-1.3 1.5v1.6C368.6 157.5 369.2 158.1 369.9 158.1z"/><path class="st0" d="M384.2 148.7h-2.5c-0.2 0-0.4 0.2-0.4 0.5v1.1c0 0.3 0.2 0.5 0.4 0.5h2.5c0.2 0 0.4-0.2 0.4-0.5v-1.1C384.6 148.9 384.4 148.7 384.2 148.7z"/><path class="st0" d="M370.6 150.8h2.5c0.2 0 0.4-0.2 0.4-0.5v-1.1c0-0.3-0.2-0.5-0.4-0.5h-2.5c-0.2 0-0.4 0.2-0.4 0.5v1.1C370.1 150.6 370.3 150.8 370.6 150.8z"/><circle class="st1" cx="377.4" cy="64.8" r="11.2"/><path class="st1" d="M321.8 78.5h-20.3c-3 0-5.4 1.4-5.4 3.2v48.2c0 1.3 1.2 2.3 3 2.9 0 0.1 0 0.1 0 0.2v25.1c0 2.5 2 4.5 4.5 4.5h15.9c2.5 0 4.5-2 4.5-4.5V133c0-0.1 0-0.1 0-0.2 1.8-0.5 3-1.6 3-2.9V81.7C327.2 79.9 324.8 78.5 321.8 78.5zM318.9 150.3c0 0.3-0.2 0.5-0.4 0.5h-2.5c-0.2 0-0.4-0.2-0.4-0.5v-1.1c0-0.3 0.2-0.5 0.4-0.5h2.5c0.2 0 0.4 0.2 0.4 0.5V150.3zM304.4 150.3v-1.1c0-0.3 0.2-0.5 0.4-0.5h2.5c0.2 0 0.4 0.2 0.4 0.5v1.1c0 0.3-0.2 0.5-0.4 0.5h-2.5C304.6 150.8 304.4 150.6 304.4 150.3zM302.9 155c0-0.8 0.6-1.5 1.3-1.5h3.8c0.7 0 1.3 0.7 1.3 1.5v1.6c0 0.8-0.6 1.5-1.3 1.5h-3.8c-0.7 0-1.3-0.6-1.3-1.5V155zM320.4 156.7c0 0.8-0.6 1.5-1.3 1.5h-3.8c-0.7 0-1.3-0.6-1.3-1.5V155c0-0.8 0.6-1.5 1.3-1.5h3.8c0.7 0 1.3 0.7 1.3 1.5V156.7z"/><path class="st0" d="M319.1 153.6h-3.8c-0.7 0-1.3 0.7-1.3 1.5v1.6c0 0.8 0.6 1.5 1.3 1.5h3.8c0.7 0 1.3-0.6 1.3-1.5V155C320.4 154.2 319.8 153.6 319.1 153.6z"/><path class="st0" d="M304.2 158.1h3.8c0.7 0 1.3-0.6 1.3-1.5V155c0-0.8-0.6-1.5-1.3-1.5h-3.8c-0.7 0-1.3 0.7-1.3 1.5v1.6C302.9 157.5 303.5 158.1 304.2 158.1z"/><path class="st0" d="M318.5 148.7h-2.5c-0.2 0-0.4 0.2-0.4 0.5v1.1c0 0.3 0.2 0.5 0.4 0.5h2.5c0.2 0 0.4-0.2 0.4-0.5v-1.1C318.9 148.9 318.7 148.7 318.5 148.7z"/><path class="st0" d="M304.8 150.8h2.5c0.2 0 0.4-0.2 0.4-0.5v-1.1c0-0.3-0.2-0.5-0.4-0.5h-2.5c-0.2 0-0.4 0.2-0.4 0.5v1.1C304.4 150.6 304.6 150.8 304.8 150.8z"/><circle class="st1" cx="311.4" cy="64.3" r="11.2"/><path class="st1" d="M253.2 78.4h-17.6c-2.9 0-5.3 2.4-5.3 5.3l-11 44.2c0 2.9 2.4 5.3 5.3 5.3h7.6v24.9c0 2.5 2 4.5 4.5 4.5h15.9c2.5 0 4.5-2 4.5-4.5v-24.9h7.6c2.9 0 5.3-2.4 5.3-5.3l-11.7-44.2C258.5 80.8 256.1 78.4 253.2 78.4zM252 150.3c0 0.3-0.2 0.5-0.4 0.5H249c-0.2 0-0.4-0.2-0.4-0.5v-1.1c0-0.3 0.2-0.5 0.4-0.5h2.5c0.2 0 0.4 0.2 0.4 0.5V150.3zM237.5 150.3v-1.1c0-0.3 0.2-0.5 0.4-0.5h2.5c0.2 0 0.4 0.2 0.4 0.5v1.1c0 0.3-0.2 0.5-0.4 0.5h-2.5C237.7 150.8 237.5 150.6 237.5 150.3zM236 155c0-0.8 0.6-1.5 1.3-1.5h3.8c0.7 0 1.3 0.7 1.3 1.5v1.6c0 0.8-0.6 1.5-1.3 1.5h-3.8c-0.7 0-1.3-0.6-1.3-1.5V155zM253.5 156.7c0 0.8-0.6 1.5-1.3 1.5h-3.8c-0.7 0-1.3-0.6-1.3-1.5V155c0-0.8 0.6-1.5 1.3-1.5h3.8c0.7 0 1.3 0.7 1.3 1.5V156.7z"/><path class="st0" d="M252.2 153.6h-3.8c-0.7 0-1.3 0.7-1.3 1.5v1.6c0 0.8 0.6 1.5 1.3 1.5h3.8c0.7 0 1.3-0.6 1.3-1.5V155C253.5 154.2 252.9 153.6 252.2 153.6z"/><path class="st0" d="M237.3 158.1h3.8c0.7 0 1.3-0.6 1.3-1.5V155c0-0.8-0.6-1.5-1.3-1.5h-3.8c-0.7 0-1.3 0.7-1.3 1.5v1.6C236 157.5 236.6 158.1 237.3 158.1z"/><path class="st0" d="M251.5 148.7H249c-0.2 0-0.4 0.2-0.4 0.5v1.1c0 0.3 0.2 0.5 0.4 0.5h2.5c0.2 0 0.4-0.2 0.4-0.5v-1.1C252 148.9 251.8 148.7 251.5 148.7z"/><path class="st0" d="M237.9 150.8h2.5c0.2 0 0.4-0.2 0.4-0.5v-1.1c0-0.3-0.2-0.5-0.4-0.5h-2.5c-0.2 0-0.4 0.2-0.4 0.5v1.1C237.5 150.6 237.7 150.8 237.9 150.8z"/><circle class="st1" cx="244.7" cy="64.3" r="11.2"/><path class="st1" d="M120.4 78.4h-17.6c-2.9 0-5.3 2.4-5.3 5.3l-11 44.2c0 2.9 2.4 5.3 5.3 5.3h7.6v24.9c0 2.5 2 4.5 4.5 4.5h15.9c2.5 0 4.5-2 4.5-4.5v-24.9h7.6c2.9 0 5.3-2.4 5.3-5.3l-11.7-44.2C125.7 80.8 123.3 78.4 120.4 78.4zM119.2 150.3c0 0.3-0.2 0.5-0.4 0.5h-2.5c-0.2 0-0.4-0.2-0.4-0.5v-1.1c0-0.3 0.2-0.5 0.4-0.5h2.5c0.2 0 0.4 0.2 0.4 0.5V150.3zM104.7 150.3v-1.1c0-0.3 0.2-0.5 0.4-0.5h2.5c0.2 0 0.4 0.2 0.4 0.5v1.1c0 0.3-0.2 0.5-0.4 0.5h-2.5C104.9 150.8 104.7 150.6 104.7 150.3zM103.2 155c0-0.8 0.6-1.5 1.3-1.5h3.8c0.7 0 1.3 0.7 1.3 1.5v1.6c0 0.8-0.6 1.5-1.3 1.5h-3.8c-0.7 0-1.3-0.6-1.3-1.5V155zM120.7 156.7c0 0.8-0.6 1.5-1.3 1.5h-3.8c-0.7 0-1.3-0.6-1.3-1.5V155c0-0.8 0.6-1.5 1.3-1.5h3.8c0.7 0 1.3 0.7 1.3 1.5V156.7z"/><path class="st0" d="M119.4 153.6h-3.8c-0.7 0-1.3 0.7-1.3 1.5v1.6c0 0.8 0.6 1.5 1.3 1.5h3.8c0.7 0 1.3-0.6 1.3-1.5V155C120.7 154.2 120.1 153.6 119.4 153.6z"/><path class="st0" d="M104.5 158.1h3.8c0.7 0 1.3-0.6 1.3-1.5V155c0-0.8-0.6-1.5-1.3-1.5h-3.8c-0.7 0-1.3 0.7-1.3 1.5v1.6C103.2 157.5 103.8 158.1 104.5 158.1z"/><path class="st0" d="M118.8 148.7h-2.5c-0.2 0-0.4 0.2-0.4 0.5v1.1c0 0.3 0.2 0.5 0.4 0.5h2.5c0.2 0 0.4-0.2 0.4-0.5v-1.1C119.2 148.9 119 148.7 118.8 148.7z"/><path class="st0" d="M105.1 150.8h2.5c0.2 0 0.4-0.2 0.4-0.5v-1.1c0-0.3-0.2-0.5-0.4-0.5h-2.5c-0.2 0-0.4 0.2-0.4 0.5v1.1C104.7 150.6 104.9 150.8 105.1 150.8z"/><circle class="st1" cx="111.9" cy="64.3" r="11.2"/><path class="st1" d="M56.9 78.5H36.6c-3 0-5.4 1.4-5.4 3.2v48.2c0 1.3 1.2 2.3 3 2.9v25.3c0 2.5 2 4.5 4.5 4.5h15.9c2.5 0 4.5-2 4.5-4.5v-25.3c1.8-0.5 3-1.6 3-2.9V81.7C62.3 79.9 59.9 78.5 56.9 78.5zM54 150.3c0 0.3-0.2 0.5-0.4 0.5H51c-0.2 0-0.4-0.2-0.4-0.5v-1.1c0-0.3 0.2-0.5 0.4-0.5h2.5c0.2 0 0.4 0.2 0.4 0.5V150.3zM39.5 150.3v-1.1c0-0.3 0.2-0.5 0.4-0.5h2.5c0.2 0 0.4 0.2 0.4 0.5v1.1c0 0.3-0.2 0.5-0.4 0.5H40C39.7 150.8 39.5 150.6 39.5 150.3zM38 155c0-0.8 0.6-1.5 1.3-1.5h3.8c0.7 0 1.3 0.7 1.3 1.5v1.6c0 0.8-0.6 1.5-1.3 1.5h-3.8c-0.7 0-1.3-0.6-1.3-1.5V155zM55.5 156.7c0 0.8-0.6 1.5-1.3 1.5h-3.8c-0.7 0-1.3-0.6-1.3-1.5V155c0-0.8 0.6-1.5 1.3-1.5h3.8c0.7 0 1.3 0.7 1.3 1.5V156.7z"/><path class="st0" d="M54.2 153.6h-3.8c-0.7 0-1.3 0.7-1.3 1.5v1.6c0 0.8 0.6 1.5 1.3 1.5h3.8c0.7 0 1.3-0.6 1.3-1.5V155C55.5 154.2 54.9 153.6 54.2 153.6z"/><path class="st0" d="M39.3 158.1h3.8c0.7 0 1.3-0.6 1.3-1.5V155c0-0.8-0.6-1.5-1.3-1.5h-3.8c-0.7 0-1.3 0.7-1.3 1.5v1.6C38 157.5 38.6 158.1 39.3 158.1z"/><path class="st0" d="M53.6 148.7H51c-0.2 0-0.4 0.2-0.4 0.5v1.1c0 0.3 0.2 0.5 0.4 0.5h2.5c0.2 0 0.4-0.2 0.4-0.5v-1.1C54 148.9 53.8 148.7 53.6 148.7z"/><path class="st0" d="M40 150.8h2.5c0.2 0 0.4-0.2 0.4-0.5v-1.1c0-0.3-0.2-0.5-0.4-0.5H40c-0.2 0-0.4 0.2-0.4 0.5v1.1C39.5 150.6 39.7 150.8 40 150.8z"/><circle class="st1" cx="46.5" cy="64.3" r="11.2"/><polygon class="st1" points="208.5 151.2 192.6 141.4 192.7 160.1 197.4 157.5 200.2 162.4 206.7 158.8 203.9 153.8 "/><path class="st0" d="M192.6 141.4l16 9.7 -4.7 2.7 2.8 5 -6.5 3.7 -2.8-5 -4.7 2.7L192.6 141.4M189.3 135.7l0 5.8 0.1 18.7 0 5.5 4.8-2.7 1.9-1.1 1.2 2.2 1.6 2.8 2.8-1.6 6.5-3.7 2.8-1.6 -1.6-2.8 -1.2-2.2 1.9-1.1 4.8-2.7 -4.7-2.8 -16-9.7L189.3 135.7 189.3 135.7z"/></svg>